<svg width="235" height="60" viewBox="0 0 235 60" fill="none" xmlns="http://www.w3.org/2000/svg">
<path d="M39.9859 47.4484C39.9859 49.5631 39.4434 51.6424 38.4101 53.4874C37.3768 55.3324 35.8874 56.8815 34.0844 57.9864C32.2813 59.0913 30.2249 59.7151 28.1119 59.7982C25.9988 59.8812 23.8998 59.4206 22.0157 58.4606C20.1315 57.5006 18.5251 56.0731 17.3503 54.3148C16.1754 52.5566 15.4714 50.5262 15.3055 48.4181C15.1395 46.3099 15.5173 44.1945 16.4027 42.2741C17.288 40.3536 18.6512 38.6925 20.362 37.4495L23.2679 41.4491C22.2414 42.1949 21.4234 43.1915 20.8923 44.3438C20.3611 45.496 20.1344 46.7653 20.2339 48.0302C20.3335 49.2951 20.7559 50.5133 21.4608 51.5683C22.1657 52.6232 23.1295 53.4797 24.2601 54.0557C25.3906 54.6317 26.65 54.9081 27.9178 54.8583C29.1856 54.8084 30.4194 54.4342 31.5013 53.7712C32.5831 53.1083 33.4767 52.1788 34.0967 51.0718C34.7167 49.9648 35.0422 48.7172 35.0422 47.4484H39.9859Z" fill="#9F580A"/>
<path d="M55.2477 37.4495C56.9585 38.6925 58.3218 40.3536 59.2071 42.2741C60.0924 44.1945 60.4702 46.3099 60.3043 48.4181C60.1384 50.5262 59.4343 52.5566 58.2595 54.3148C57.0846 56.0731 55.4783 57.5006 53.5941 58.4606C51.7099 59.4206 49.6109 59.8812 47.4979 59.7982C45.3849 59.7151 43.3285 59.0913 41.5254 57.9864C39.7224 56.8815 38.233 55.3325 37.1997 53.4874C36.1664 51.6424 35.6238 49.5631 35.6238 47.4484L40.5675 47.4484C40.5675 48.7172 40.8931 49.9648 41.5131 51.0718C42.133 52.1788 43.0267 53.1083 44.1085 53.7712C45.1903 54.4342 46.4242 54.8084 47.692 54.8583C48.9598 54.9081 50.2192 54.6317 51.3497 54.0557C52.4802 53.4797 53.444 52.6232 54.1489 51.5683C54.8538 50.5133 55.2763 49.2951 55.3758 48.0302C55.4754 46.7653 55.2487 45.4961 54.7175 44.3438C54.1863 43.1915 53.3684 42.1949 52.3419 41.4491L55.2477 37.4495Z" fill="#9F580A"/>
<path d="M65.432 25.457C67.9169 25.4571 70.0736 26.1083 71.5472 27.0557C73.0422 28.0168 73.6096 29.1044 73.6097 30C73.6097 30.8956 73.0422 31.9832 71.5472 32.9443C70.0736 33.8917 67.9169 34.5429 65.432 34.543C62.9468 34.543 60.7895 33.8917 59.3158 32.9443C57.8208 31.9832 57.2533 30.8956 57.2533 30C57.2534 29.1044 57.8208 28.0167 59.3158 27.0557C60.7895 26.1083 62.9468 25.457 65.432 25.457Z" stroke="#E3A008" stroke-width="4"/>
<path d="M10.1787 25.457C12.6637 25.4571 14.8203 26.1083 16.2939 27.0557C17.789 28.0168 18.3564 29.1044 18.3564 30C18.3564 30.8956 17.7889 31.9832 16.2939 32.9443C14.8203 33.8917 12.6637 34.5429 10.1787 34.543C7.69356 34.543 5.53625 33.8917 4.0625 32.9443C2.56752 31.9832 2 30.8956 2 30C2.00008 29.1044 2.5675 28.0167 4.0625 27.0557C5.53625 26.1083 7.69356 25.457 10.1787 25.457Z" stroke="#E3A008" stroke-width="4"/>
<ellipse cx="27.2631" cy="11.4611" rx="9.08771" ry="11.2688" fill="#9F580A"/>
<ellipse cx="49.0736" cy="11.4611" rx="9.08771" ry="11.2688" fill="#9F580A"/>
<path d="M92.8098 22V8H97.8098C98.5698 8 99.2564 8.19 99.8698 8.57C100.49 8.95 100.98 9.46 101.34 10.1C101.7 10.74 101.88 11.4433 101.88 12.21C101.88 12.9967 101.693 13.71 101.32 14.35C100.953 14.9833 100.46 15.49 99.8398 15.87C99.2198 16.2433 98.5431 16.43 97.8098 16.43H95.2498V22H92.8098ZM95.2498 13.99H97.5498C97.8964 13.99 98.2131 13.9033 98.4998 13.73C98.7864 13.5567 99.0131 13.3233 99.1798 13.03C99.3531 12.7367 99.4398 12.41 99.4398 12.05C99.4398 11.6833 99.3531 11.3533 99.1798 11.06C99.0131 10.7667 98.7864 10.5333 98.4998 10.36C98.2131 10.1867 97.8964 10.1 97.5498 10.1H95.2498V13.99ZM103.708 22V8H112.488V10.44H106.148V13.28H111.178V15.72H106.148V19.56H112.488V22H103.708ZM125.285 8V10.44H121.005V22H118.565V10.44H114.285V8H125.285ZM132.186 22.26C131.412 22.26 130.669 22.14 129.956 21.9C129.249 21.6533 128.629 21.3033 128.096 20.85C127.562 20.39 127.179 19.84 126.946 19.2L129.236 18.36C129.329 18.6267 129.519 18.87 129.806 19.09C130.092 19.31 130.442 19.4867 130.856 19.62C131.269 19.7533 131.712 19.82 132.186 19.82C132.672 19.82 133.126 19.7467 133.546 19.6C133.972 19.4467 134.316 19.2367 134.576 18.97C134.836 18.6967 134.966 18.38 134.966 18.02C134.966 17.6533 134.829 17.3533 134.556 17.12C134.282 16.88 133.932 16.69 133.506 16.55C133.079 16.41 132.639 16.3033 132.186 16.23C131.192 16.0767 130.302 15.84 129.516 15.52C128.729 15.2 128.106 14.7567 127.646 14.19C127.192 13.6233 126.966 12.89 126.966 11.99C126.966 11.1433 127.209 10.4033 127.696 9.77C128.182 9.13667 128.822 8.64333 129.616 8.29C130.409 7.93667 131.266 7.76 132.186 7.76C132.952 7.76 133.692 7.88 134.406 8.12C135.119 8.36 135.742 8.71 136.276 9.17C136.816 9.63 137.202 10.1833 137.436 10.83L135.136 11.66C135.042 11.3933 134.852 11.15 134.566 10.93C134.279 10.71 133.929 10.5367 133.516 10.41C133.102 10.2767 132.659 10.21 132.186 10.21C131.712 10.2033 131.262 10.28 130.836 10.44C130.416 10.5933 130.072 10.8033 129.806 11.07C129.539 11.3367 129.406 11.6433 129.406 11.99C129.406 12.4367 129.529 12.7733 129.776 13C130.029 13.2267 130.366 13.3933 130.786 13.5C131.206 13.6 131.672 13.6933 132.186 13.78C133.119 13.9267 133.982 14.1733 134.776 14.52C135.569 14.8667 136.206 15.33 136.686 15.91C137.166 16.4833 137.406 17.1867 137.406 18.02C137.406 18.8667 137.166 19.61 136.686 20.25C136.206 20.8833 135.569 21.3767 134.776 21.73C133.982 22.0833 133.119 22.26 132.186 22.26ZM147.925 8H150.365V22H147.925V15.72H142.125V22H139.685V8H142.125V13.28H147.925V8ZM159.271 22.26C158.324 22.26 157.434 22.0733 156.601 21.7C155.767 21.32 155.034 20.7967 154.401 20.13C153.767 19.4633 153.271 18.6933 152.911 17.82C152.551 16.94 152.371 16 152.371 15C152.371 14 152.551 13.0633 152.911 12.19C153.271 11.31 153.767 10.5367 154.401 9.87C155.034 9.20333 155.767 8.68333 156.601 8.31C157.434 7.93 158.324 7.74 159.271 7.74C160.224 7.74 161.117 7.93 161.951 8.31C162.784 8.68333 163.517 9.20333 164.151 9.87C164.784 10.5367 165.277 11.31 165.631 12.19C165.991 13.0633 166.171 14 166.171 15C166.171 16 165.991 16.94 165.631 17.82C165.277 18.6933 164.784 19.4633 164.151 20.13C163.517 20.7967 162.784 21.32 161.951 21.7C161.117 22.0733 160.224 22.26 159.271 22.26ZM159.271 19.82C159.884 19.82 160.461 19.6933 161.001 19.44C161.541 19.1867 162.014 18.84 162.421 18.4C162.834 17.9533 163.154 17.44 163.381 16.86C163.614 16.28 163.731 15.66 163.731 15C163.731 14.34 163.614 13.72 163.381 13.14C163.147 12.5533 162.824 12.04 162.411 11.6C162.004 11.16 161.531 10.8133 160.991 10.56C160.457 10.3067 159.884 10.18 159.271 10.18C158.657 10.18 158.081 10.3067 157.541 10.56C157.001 10.8133 156.524 11.1633 156.111 11.61C155.704 12.05 155.384 12.56 155.151 13.14C154.924 13.72 154.811 14.34 154.811 15C154.811 15.6667 154.927 16.29 155.161 16.87C155.394 17.45 155.714 17.9633 156.121 18.41C156.534 18.85 157.007 19.1967 157.541 19.45C158.081 19.6967 158.657 19.82 159.271 19.82ZM167.986 22V8H172.986C173.746 8 174.432 8.19 175.046 8.57C175.666 8.95 176.156 9.46 176.516 10.1C176.876 10.74 177.056 11.4433 177.056 12.21C177.056 12.9967 176.869 13.71 176.496 14.35C176.129 14.9833 175.636 15.49 175.016 15.87C174.396 16.2433 173.719 16.43 172.986 16.43H170.426V22H167.986ZM170.426 13.99H172.726C173.072 13.99 173.389 13.9033 173.676 13.73C173.962 13.5567 174.189 13.3233 174.356 13.03C174.529 12.7367 174.616 12.41 174.616 12.05C174.616 11.6833 174.529 11.3533 174.356 11.06C174.189 10.7667 173.962 10.5333 173.676 10.36C173.389 10.1867 173.072 10.1 172.726 10.1H170.426V13.99ZM92.8098 52L95.5298 38H97.5498L100.96 46.97L104.37 38H106.39L109.11 52H106.62L104.94 43.34L101.79 51.68H100.12L96.9698 43.34L95.2998 52H92.8098ZM115.126 38H117.936L123.026 52H120.436L119.536 49.52H113.536L112.636 52H110.046L115.126 38ZM114.426 47.08H118.636L116.526 41.31L114.426 47.08ZM124.704 52V38H127.344L133.254 47.59V38H135.694V52H133.064L127.144 42.41V52H124.704ZM142.783 38H145.593L150.683 52H148.093L147.193 49.52H141.193L140.293 52H137.703L142.783 38ZM142.083 47.08H146.293L144.183 41.31L142.083 47.08ZM158.098 52.26C157.125 52.26 156.218 52.07 155.378 51.69C154.545 51.31 153.818 50.7867 153.198 50.12C152.578 49.4467 152.092 48.6733 151.738 47.8C151.392 46.92 151.218 45.98 151.218 44.98C151.218 43.9267 151.405 42.96 151.778 42.08C152.158 41.2 152.675 40.4367 153.328 39.79C153.982 39.1433 154.722 38.6433 155.548 38.29C156.382 37.9367 157.248 37.76 158.148 37.76C159.155 37.76 160.132 37.9967 161.078 38.47C162.032 38.9367 162.872 39.66 163.598 40.64L161.418 41.81C160.972 41.2633 160.458 40.8567 159.878 40.59C159.305 40.3167 158.718 40.18 158.118 40.18C157.532 40.18 156.968 40.3 156.428 40.54C155.895 40.78 155.418 41.12 154.998 41.56C154.585 41.9933 154.258 42.5067 154.018 43.1C153.778 43.6867 153.658 44.33 153.658 45.03C153.658 45.69 153.775 46.3133 154.008 46.9C154.242 47.48 154.562 47.99 154.968 48.43C155.382 48.8633 155.858 49.2033 156.398 49.45C156.938 49.6967 157.518 49.82 158.138 49.82C158.552 49.82 158.955 49.7567 159.348 49.63C159.748 49.4967 160.122 49.3067 160.468 49.06C160.822 48.8133 161.135 48.5133 161.408 48.16C161.688 47.8067 161.922 47.4067 162.108 46.96H159.558V44.83H164.978C165.005 45.85 164.845 46.8067 164.498 47.7C164.152 48.5933 163.662 49.3833 163.028 50.07C162.395 50.7567 161.658 51.2933 160.818 51.68C159.978 52.0667 159.072 52.26 158.098 52.26ZM166.814 52V38H175.594V40.44H169.254V43.28H174.284V45.72H169.254V49.56H175.594V52H166.814ZM177.79 52L180.51 38H182.53L185.94 46.97L189.35 38H191.37L194.09 52H191.6L189.92 43.34L186.77 51.68H185.1L181.95 43.34L180.28 52H177.79ZM196.111 52V38H204.891V40.44H198.551V43.28H203.581V45.72H198.551V49.56H204.891V52H196.111ZM207.146 52V38H209.786L215.696 47.59V38H218.136V52H215.506L209.586 42.41V52H207.146ZM231.144 38V40.44H226.864V52H224.424V40.44H220.144V38H231.144Z" fill="#8E4B10"/>
</svg>
