<svg width="308" height="47" viewBox="0 0 308 47" fill="none" xmlns="http://www.w3.org/2000/svg">
<path d="M31.5244 37.2561C31.5244 38.9233 31.0967 40.5626 30.282 42.0172C29.4674 43.4718 28.2932 44.6931 26.8717 45.5642C25.4502 46.4352 23.829 46.927 22.1631 46.9925C20.4972 47.058 18.8423 46.6949 17.3569 45.938C15.8714 45.1811 14.605 44.0557 13.6788 42.6695C12.7525 41.2833 12.1975 39.6826 12.0667 38.0206C11.9359 36.3586 12.2337 34.6908 12.9317 33.1767C13.6296 31.6627 14.7044 30.3531 16.0532 29.3731L18.3441 32.5263C17.5349 33.1143 16.89 33.9001 16.4712 34.8085C16.0524 35.7169 15.8737 36.7176 15.9522 37.7148C16.0307 38.712 16.3637 39.6724 16.9195 40.5042C17.4752 41.3359 18.2351 42.0111 19.1263 42.4652C20.0176 42.9194 21.0105 43.1372 22.01 43.0979C23.0096 43.0587 23.9823 42.7636 24.8352 42.2409C25.6881 41.7183 26.3927 40.9855 26.8814 40.1128C27.3702 39.24 27.6269 38.2564 27.6269 37.2561H31.5244Z" fill="#9F580A"/>
<path d="M43.5566 29.3731C44.9053 30.3531 45.9801 31.6627 46.6781 33.1767C47.3761 34.6908 47.6739 36.3586 47.5431 38.0206C47.4123 39.6826 46.8572 41.2833 45.931 42.6695C45.0048 44.0557 43.7383 45.1811 42.2529 45.938C40.7674 46.6949 39.1126 47.058 37.4467 46.9925C35.7808 46.927 34.1596 46.4353 32.7381 45.5642C31.3166 44.6931 30.1423 43.4718 29.3277 42.0172C28.5131 40.5626 28.0853 38.9233 28.0853 37.2561L31.9829 37.2561C31.9829 38.2564 32.2396 39.24 32.7283 40.1128C33.2171 40.9855 33.9216 41.7183 34.7745 42.2409C35.6274 42.7636 36.6002 43.0587 37.5997 43.0979C38.5992 43.1372 39.5921 42.9194 40.4834 42.4652C41.3747 42.0111 42.1345 41.3359 42.6903 40.5042C43.246 39.6724 43.5791 38.712 43.6575 37.7148C43.736 36.7176 43.5573 35.7169 43.1385 34.8085C42.7198 33.9001 42.0749 33.1143 41.2656 32.5263L43.5566 29.3731Z" fill="#9F580A"/>
<path d="M51.5854 19.3415C53.6386 19.3415 55.4512 19.8788 56.7192 20.694C57.9975 21.5159 58.6097 22.531 58.6099 23.4997C58.6099 24.4684 57.9977 25.4843 56.7192 26.3063C55.4512 27.1215 53.6386 27.6588 51.5854 27.6588C49.5323 27.6588 47.7197 27.1215 46.4517 26.3063C45.1732 25.4843 44.561 24.4685 44.561 23.4997C44.5612 22.531 45.1734 21.5159 46.4517 20.694C47.7197 19.8788 49.5323 19.3415 51.5854 19.3415Z" stroke="#E3A008" stroke-width="2"/>
<path d="M8.02441 19.3415C10.0775 19.3415 11.8902 19.8788 13.1582 20.694C14.4364 21.5159 15.0487 22.531 15.0488 23.4997C15.0488 24.4684 14.4367 25.4843 13.1582 26.3063C11.8902 27.1215 10.0775 27.6588 8.02441 27.6588C5.97128 27.6588 4.15868 27.1215 2.89062 26.3063C1.61213 25.4843 1 24.4685 1 23.4997C1.00014 22.531 1.61237 21.5159 2.89062 20.694C4.15868 19.8788 5.97128 19.3415 8.02441 19.3415Z" stroke="#E3A008" stroke-width="2"/>
<ellipse cx="21.4939" cy="8.88415" rx="7.16463" ry="8.88415" fill="#9F580A"/>
<ellipse cx="38.689" cy="8.88415" rx="7.16463" ry="8.88415" fill="#9F580A"/>
<path d="M76.8097 30.5V16.5H81.8097C82.5697 16.5 83.2564 16.69 83.8697 17.07C84.4897 17.45 84.9797 17.96 85.3397 18.6C85.6997 19.24 85.8797 19.9433 85.8797 20.71C85.8797 21.4967 85.6931 22.21 85.3197 22.85C84.9531 23.4833 84.4597 23.99 83.8397 24.37C83.2197 24.7433 82.5431 24.93 81.8097 24.93H79.2497V30.5H76.8097ZM79.2497 22.49H81.5497C81.8964 22.49 82.2131 22.4033 82.4997 22.23C82.7864 22.0567 83.0131 21.8233 83.1797 21.53C83.3531 21.2367 83.4397 20.91 83.4397 20.55C83.4397 20.1833 83.3531 19.8533 83.1797 19.56C83.0131 19.2667 82.7864 19.0333 82.4997 18.86C82.2131 18.6867 81.8964 18.6 81.5497 18.6H79.2497V22.49ZM87.7082 30.5V16.5H96.4882V18.94H90.1482V21.78H95.1782V24.22H90.1482V28.06H96.4882V30.5H87.7082ZM109.285 16.5V18.94H105.005V30.5H102.565V18.94H98.2847V16.5H109.285ZM116.186 30.76C115.412 30.76 114.669 30.64 113.956 30.4C113.249 30.1533 112.629 29.8033 112.096 29.35C111.562 28.89 111.179 28.34 110.946 27.7L113.236 26.86C113.329 27.1267 113.519 27.37 113.806 27.59C114.092 27.81 114.442 27.9867 114.856 28.12C115.269 28.2533 115.712 28.32 116.186 28.32C116.672 28.32 117.126 28.2467 117.546 28.1C117.972 27.9467 118.316 27.7367 118.576 27.47C118.836 27.1967 118.966 26.88 118.966 26.52C118.966 26.1533 118.829 25.8533 118.556 25.62C118.282 25.38 117.932 25.19 117.506 25.05C117.079 24.91 116.639 24.8033 116.186 24.73C115.192 24.5767 114.302 24.34 113.516 24.02C112.729 23.7 112.106 23.2567 111.646 22.69C111.192 22.1233 110.966 21.39 110.966 20.49C110.966 19.6433 111.209 18.9033 111.696 18.27C112.182 17.6367 112.822 17.1433 113.616 16.79C114.409 16.4367 115.266 16.26 116.186 16.26C116.952 16.26 117.692 16.38 118.406 16.62C119.119 16.86 119.742 17.21 120.276 17.67C120.816 18.13 121.202 18.6833 121.436 19.33L119.136 20.16C119.042 19.8933 118.852 19.65 118.566 19.43C118.279 19.21 117.929 19.0367 117.516 18.91C117.102 18.7767 116.659 18.71 116.186 18.71C115.712 18.7033 115.262 18.78 114.836 18.94C114.416 19.0933 114.072 19.3033 113.806 19.57C113.539 19.8367 113.406 20.1433 113.406 20.49C113.406 20.9367 113.529 21.2733 113.776 21.5C114.029 21.7267 114.366 21.8933 114.786 22C115.206 22.1 115.672 22.1933 116.186 22.28C117.119 22.4267 117.982 22.6733 118.776 23.02C119.569 23.3667 120.206 23.83 120.686 24.41C121.166 24.9833 121.406 25.6867 121.406 26.52C121.406 27.3667 121.166 28.11 120.686 28.75C120.206 29.3833 119.569 29.8767 118.776 30.23C117.982 30.5833 117.119 30.76 116.186 30.76ZM131.925 16.5H134.365V30.5H131.925V24.22H126.125V30.5H123.685V16.5H126.125V21.78H131.925V16.5ZM143.271 30.76C142.324 30.76 141.434 30.5733 140.601 30.2C139.767 29.82 139.034 29.2967 138.401 28.63C137.767 27.9633 137.271 27.1933 136.911 26.32C136.551 25.44 136.371 24.5 136.371 23.5C136.371 22.5 136.551 21.5633 136.911 20.69C137.271 19.81 137.767 19.0367 138.401 18.37C139.034 17.7033 139.767 17.1833 140.601 16.81C141.434 16.43 142.324 16.24 143.271 16.24C144.224 16.24 145.117 16.43 145.951 16.81C146.784 17.1833 147.517 17.7033 148.151 18.37C148.784 19.0367 149.277 19.81 149.631 20.69C149.991 21.5633 150.171 22.5 150.171 23.5C150.171 24.5 149.991 25.44 149.631 26.32C149.277 27.1933 148.784 27.9633 148.151 28.63C147.517 29.2967 146.784 29.82 145.951 30.2C145.117 30.5733 144.224 30.76 143.271 30.76ZM143.271 28.32C143.884 28.32 144.461 28.1933 145.001 27.94C145.541 27.6867 146.014 27.34 146.421 26.9C146.834 26.4533 147.154 25.94 147.381 25.36C147.614 24.78 147.731 24.16 147.731 23.5C147.731 22.84 147.614 22.22 147.381 21.64C147.147 21.0533 146.824 20.54 146.411 20.1C146.004 19.66 145.531 19.3133 144.991 19.06C144.457 18.8067 143.884 18.68 143.271 18.68C142.657 18.68 142.081 18.8067 141.541 19.06C141.001 19.3133 140.524 19.6633 140.111 20.11C139.704 20.55 139.384 21.06 139.151 21.64C138.924 22.22 138.811 22.84 138.811 23.5C138.811 24.1667 138.927 24.79 139.161 25.37C139.394 25.95 139.714 26.4633 140.121 26.91C140.534 27.35 141.007 27.6967 141.541 27.95C142.081 28.1967 142.657 28.32 143.271 28.32ZM151.986 30.5V16.5H156.986C157.746 16.5 158.432 16.69 159.046 17.07C159.666 17.45 160.156 17.96 160.516 18.6C160.876 19.24 161.056 19.9433 161.056 20.71C161.056 21.4967 160.869 22.21 160.496 22.85C160.129 23.4833 159.636 23.99 159.016 24.37C158.396 24.7433 157.719 24.93 156.986 24.93H154.426V30.5H151.986ZM154.426 22.49H156.726C157.072 22.49 157.389 22.4033 157.676 22.23C157.962 22.0567 158.189 21.8233 158.356 21.53C158.529 21.2367 158.616 20.91 158.616 20.55C158.616 20.1833 158.529 19.8533 158.356 19.56C158.189 19.2667 157.962 19.0333 157.676 18.86C157.389 18.6867 157.072 18.6 156.726 18.6H154.426V22.49ZM167.864 30.5L170.584 16.5H172.604L176.014 25.47L179.424 16.5H181.444L184.164 30.5H181.674L179.994 21.84L176.844 30.18H175.174L172.024 21.84L170.354 30.5H167.864ZM190.181 16.5H192.991L198.081 30.5H195.491L194.591 28.02H188.591L187.691 30.5H185.101L190.181 16.5ZM189.481 25.58H193.691L191.581 19.81L189.481 25.58ZM199.759 30.5V16.5H202.399L208.309 26.09V16.5H210.749V30.5H208.119L202.199 20.91V30.5H199.759ZM217.837 16.5H220.647L225.737 30.5H223.147L222.247 28.02H216.247L215.347 30.5H212.757L217.837 16.5ZM217.137 25.58H221.347L219.237 19.81L217.137 25.58ZM233.153 30.76C232.18 30.76 231.273 30.57 230.433 30.19C229.6 29.81 228.873 29.2867 228.253 28.62C227.633 27.9467 227.146 27.1733 226.793 26.3C226.446 25.42 226.273 24.48 226.273 23.48C226.273 22.4267 226.46 21.46 226.833 20.58C227.213 19.7 227.73 18.9367 228.383 18.29C229.036 17.6433 229.776 17.1433 230.603 16.79C231.436 16.4367 232.303 16.26 233.203 16.26C234.21 16.26 235.186 16.4967 236.133 16.97C237.086 17.4367 237.926 18.16 238.653 19.14L236.473 20.31C236.026 19.7633 235.513 19.3567 234.933 19.09C234.36 18.8167 233.773 18.68 233.173 18.68C232.586 18.68 232.023 18.8 231.483 19.04C230.95 19.28 230.473 19.62 230.053 20.06C229.64 20.4933 229.313 21.0067 229.073 21.6C228.833 22.1867 228.713 22.83 228.713 23.53C228.713 24.19 228.83 24.8133 229.063 25.4C229.296 25.98 229.616 26.49 230.023 26.93C230.436 27.3633 230.913 27.7033 231.453 27.95C231.993 28.1967 232.573 28.32 233.193 28.32C233.606 28.32 234.01 28.2567 234.403 28.13C234.803 27.9967 235.176 27.8067 235.523 27.56C235.876 27.3133 236.19 27.0133 236.463 26.66C236.743 26.3067 236.976 25.9067 237.163 25.46H234.613V23.33H240.033C240.06 24.35 239.9 25.3067 239.553 26.2C239.206 27.0933 238.716 27.8833 238.083 28.57C237.45 29.2567 236.713 29.7933 235.873 30.18C235.033 30.5667 234.126 30.76 233.153 30.76ZM241.868 30.5V16.5H250.648V18.94H244.308V21.78H249.338V24.22H244.308V28.06H250.648V30.5H241.868ZM252.845 30.5L255.565 16.5H257.585L260.995 25.47L264.405 16.5H266.425L269.145 30.5H266.655L264.975 21.84L261.825 30.18H260.155L257.005 21.84L255.335 30.5H252.845ZM271.165 30.5V16.5H279.945V18.94H273.605V21.78H278.635V24.22H273.605V28.06H279.945V30.5H271.165ZM282.2 30.5V16.5H284.84L290.75 26.09V16.5H293.19V30.5H290.56L284.64 20.91V30.5H282.2ZM306.199 16.5V18.94H301.919V30.5H299.479V18.94H295.199V16.5H306.199Z" fill="#8E4B10"/>
</svg>
